<svg xmlns="http://www.w3.org/2000/svg" viewBox="0 0 447.63 183.44">
  <path fill="#567ebc" d="M25.03 94.69c0-1.76 1.04-2.8 2.8-2.8h10.26c1.86 0 2.8.93 2.8 2.8v20.83a23.51 23.51 0 0 1 13.26-3.94c13.57 0 25.18 10.78 25.18 26.94s-12.12 26.94-25.18 26.94c-7.56 0-12.33-2.8-15.96-5.91l-4.89 2.92a91.42 91.42 0 0 0 35.64 18.17 2.42 2.42 0 0 1-.06-.47c0-.52.21-1.14.83-2.18l3.52-5.28c.62-.93 1.45-1.45 2.28-1.45.52 0 1.04.21 1.55.41 1.04.41 2.9.83 4.46.83 3 0 5.08-2.38 5.08-6.01v-42.9l-3.73-6.32c-.62-.93-1.14-1.87-1.14-2.69 0-1.14.93-1.97 2.69-1.97h15.54c1.66 0 2.8 1.04 2.8 2.8v52.53c0 8-3.31 12.83-7.66 15.5a91.29 91.29 0 0 0 53.3-19.5 39.57 39.57 0 0 1-11.14 1.52c-18.03 0-27.67-11.29-27.67-26.94 0-14.61 8.81-26.94 26.52-26.94s26.42 12.54 26.42 26.94v2.9c0 1.76-1.35 2.8-3.11 2.8h-34.3c.41 4.97 5.18 9.22 13.06 9.22 5.29 0 8.81-1.76 11.09-3.11 1.55-.93 2.9-.83 3.94.62l3.98 5.11A91.75 91.75 0 0 0 91.75 0a91.75 91.75 0 0 0-66.72 154.72V94.68Zm61.55 0c0-1.76 1.04-2.8 2.8-2.8h10.57c1.76 0 2.8 1.04 2.8 2.8v8.81c0 1.76-1.04 2.8-2.8 2.8H89.38c-1.76 0-2.8-1.04-2.8-2.8v-8.81Zm60.41 39.06h-21.86c.1-4.25 3.63-9.84 10.98-9.84s10.78 5.59 10.88 9.84Zm-95.96 18.34c-4.15 0-7.67-2.38-10.15-5.28v-17.62c2.9-2.8 6.84-4.45 10.15-4.45 6.73 0 12.12 4.87 12.12 13.78s-5.49 13.57-12.12 13.57Zm190.26-13.8c0 16.15-10.35 26.92-23.82 26.92-7.14 0-13.46-2.69-17.4-6.94v1.66c0 .93-.41 1.66-1.14 2.07l-4.14 2.69c-.52.41-.93.52-1.35.52-.62 0-1.14-.52-1.14-1.55v-70.1c0-1.24.62-1.86 1.86-1.86h4.04c1.14 0 1.86.62 1.86 1.86V118c4.45-4.25 10.46-6.63 17.4-6.63 13.46 0 23.82 10.77 23.82 26.92Zm-7.97 0c0-12.01-7.66-19.88-16.77-19.88-7.35 0-13.05 3.83-16.46 8.91v21.12c3.31 5.18 8.9 9.73 16.46 9.73 9.11 0 16.77-7.66 16.77-19.88Zm22.74-44.73v56.85c0 4.66.93 7.97 5.49 7.97 2.59 0 4.25-1.24 5.07-1.24.52 0 1.04.31 1.45 1.14l1.24 2.07c.31.41.52.83.52 1.24 0 .62-.31 1.04-1.04 1.35-3 1.55-6.21 2.28-8.91 2.28-6.63 0-11.7-3.83-11.7-12.53V93.56c0-1.24.62-1.86 1.86-1.86h4.14c1.24 0 1.86.62 1.86 1.86Zm38.03 71.65c-14.91 0-25.47-10.67-25.47-26.92s10.56-26.92 25.47-26.92 25.58 10.56 25.58 26.92-10.56 26.92-25.58 26.92Zm17.5-26.92c0-12.32-7.56-19.78-17.5-19.78s-17.5 7.35-17.5 19.78 7.66 19.78 17.5 19.78 17.5-7.46 17.5-19.78Zm53.82-22.05c.52.41.72.83.72 1.24 0 .52-.21.83-.62 1.35l-2.07 2.8c-.72 1.04-1.45 1.14-2.59.41a21.2 21.2 0 0 0-11.6-3.42c-10.04 0-17.5 7.56-17.5 19.67s7.46 19.47 17.5 19.67c4.66 0 8.49-1.04 11.6-3.31 1.14-.83 1.86-.72 2.59.31l2.07 2.69c.31.52.52.83.52 1.35s-.1.83-.72 1.24c-4.35 3.31-9.73 4.97-16.05 4.97-15.01 0-25.58-10.56-25.58-26.92s10.56-26.92 25.58-26.92c6.11 0 11.8 1.76 16.15 4.87Zm45.19 46.8c0 .62-.41 1.14-1.55 1.14h-5.28c-1.35 0-1.97-.31-2.69-1.14l-21.85-22.26v21.54c0 1.24-.73 1.86-1.86 1.86h-4.04c-1.24 0-1.86-.62-1.86-1.86V93.56c0-1.24.62-1.86 1.86-1.86h4.04c1.14 0 1.86.62 1.86 1.86v40.69l20.19-20.71c.72-.83 1.45-1.14 2.69-1.14h5.49c1.14 0 1.55 1.24.72 2.07l-22.68 22.78L410.18 162c.31.31.41.73.41 1.04Zm33.61-47.42c.52.41.72.93.72 1.45 0 .41-.1.72-.41 1.24l-1.55 2.28c-.41.52-.93.83-1.55.83-.31 0-.83-.21-1.24-.52-3.11-1.76-5.28-2.8-9.11-2.8-4.87 0-8.7 2.8-8.7 7.46 0 5.59 4.97 7.04 13.46 10.98 6.52 3 11.8 7.66 11.8 14.6 0 9.73-7.66 14.08-18.43 14.08-8.18 0-13.36-3-16.26-5.28-.52-.31-.83-.83-.83-1.35s.31-1.04.72-1.66l1.66-2.17c.41-.52.83-.83 1.35-.83s.83.1 1.66.72a20.95 20.95 0 0 0 12.22 3.73c5.9 0 9.94-2.59 9.94-7.04 0-5.9-6.32-8.18-10.87-10.25-7.14-3.11-14.39-6.32-14.39-15.33 0-8.39 7.35-14.39 16.36-14.39 7.14 0 11.18 2.59 13.46 4.25Z"/>
</svg>
